<svg width="174" height="74" viewBox="0 0 174 74" fill="none" xmlns="http://www.w3.org/2000/svg">
<g clip-path="url(#clip0_753_3239)">
<path d="M66.0093 47.3872H69.2964V19.6252H66.0093V47.3872ZM82.3597 42.8282L76.1208 27.7628H72.4221L80.588 46.6819L79.4704 49.2162C78.9932 50.2632 78.6186 50.9368 77.4237 50.9368H75.0279V53.9415H77.4618C80.0061 53.9415 81.4493 52.6571 82.2916 50.9375C82.2916 50.9374 92.0382 27.7632 92.0384 27.7628H88.4486L82.3597 42.8282ZM127.2 29.0326C125.712 28.1703 124.056 27.7388 122.233 27.7388C120.385 27.7388 118.718 28.1703 117.231 29.0326C115.743 29.8955 114.573 31.0783 113.722 32.5814C112.87 34.0848 112.444 35.7603 112.444 37.6084C112.444 39.4566 112.87 41.1326 113.722 42.6357C114.573 44.139 115.749 45.3218 117.249 46.1842C118.748 47.0465 120.409 47.478 122.233 47.478C124.44 47.478 126.384 46.8865 128.063 45.7037C129.487 44.7007 130.553 43.4291 131.27 41.8946H127.605C127.149 42.542 126.554 43.0863 125.814 43.5227C124.77 44.139 123.576 44.4469 122.233 44.4469C121.009 44.4469 119.906 44.1511 118.922 43.5596C117.938 42.9683 117.164 42.155 116.601 41.12C116.241 40.4605 115.998 39.7456 115.867 38.9761H131.878C131.95 38.5821 131.986 38.1258 131.986 37.6084C131.986 35.7603 131.56 34.0848 130.708 32.5814C129.856 31.0783 128.687 29.8955 127.2 29.0326ZM115.911 36.0189C116.048 35.334 116.276 34.6922 116.601 34.0968C117.164 33.0618 117.938 32.2485 118.922 31.6572C119.906 31.0657 121.009 30.77 122.233 30.77C123.433 30.77 124.518 31.0534 125.49 31.6202C126.462 32.1874 127.229 32.9636 127.793 33.949C128.156 34.5828 128.41 35.2732 128.559 36.0189H115.911ZM150.351 27.7622V31.7464C149.664 30.6351 148.796 29.728 147.742 29.0326C146.435 28.1703 144.953 27.7388 143.298 27.7388C141.57 27.7388 140.011 28.1703 138.619 29.0326C137.228 29.8955 136.13 31.0783 135.326 32.5812C134.522 34.0846 134.12 35.7603 134.12 37.6082C134.12 39.4566 134.522 41.1326 135.326 42.6357C136.13 44.139 137.228 45.3218 138.619 46.1842C140.011 47.0465 141.57 47.478 143.298 47.478C144.953 47.478 146.435 47.0465 147.742 46.1842C148.796 45.4892 149.664 44.5822 150.351 43.4707V47.3869H153.554V27.7622H150.351ZM149.506 41.0276C148.942 42.0506 148.168 42.8516 147.184 43.4303C146.201 44.0096 145.109 44.2991 143.909 44.2991C142.686 44.2991 141.576 44.0096 140.58 43.4303C139.585 42.8516 138.805 42.0506 138.241 41.0276C137.678 40.0052 137.395 38.8651 137.395 37.6082C137.395 36.3516 137.678 35.2121 138.241 34.1892C138.805 33.167 139.579 32.3657 140.562 31.7865C141.546 31.2078 142.65 30.9177 143.873 30.9177C145.097 30.9177 146.201 31.2078 147.184 31.7865C148.168 32.3657 148.942 33.167 149.506 34.1892C150.07 35.2121 150.351 36.3516 150.351 37.6082C150.351 38.8651 150.07 40.0052 149.506 41.0276ZM98.6912 31.7865C99.6747 31.2078 100.778 30.9177 102.002 30.9177C103.442 30.9177 104.707 31.3122 105.799 32.1005C106.333 32.4867 106.79 32.9355 107.172 33.4455H110.93C110.609 32.6956 110.197 31.9934 109.686 31.3428C108.786 30.197 107.67 29.3097 106.339 28.6815C105.007 28.0529 103.561 27.7388 102.002 27.7388C100.179 27.7388 98.523 28.1703 97.0356 29.0326C95.5478 29.8955 94.378 31.0783 93.5268 32.5812C92.6748 34.0848 92.2492 35.7603 92.2492 37.6084C92.2492 39.4566 92.6748 41.1326 93.5268 42.6357C94.378 44.139 95.5478 45.3218 97.0356 46.1842C98.523 47.0465 100.179 47.478 102.002 47.478C103.561 47.478 105.007 47.1638 106.339 46.5353C107.67 45.9071 108.786 45.0197 109.686 43.8739C110.169 43.2589 110.564 42.5984 110.877 41.8946H107.073C106.711 42.3531 106.289 42.7621 105.799 43.1161C104.707 43.9051 103.442 44.2991 102.002 44.2991C100.778 44.2991 99.6747 44.0096 98.6912 43.4303C97.707 42.8516 96.9335 42.0506 96.3699 41.0275C95.8057 40.0052 95.524 38.8651 95.524 37.6084C95.524 36.3517 95.8057 35.2121 96.3699 34.1892C96.9335 33.167 97.707 32.3657 98.6912 31.7865ZM34.6726 28.7271C33.2703 27.8582 31.6993 27.4234 29.9587 27.4234C28.2907 27.4234 26.7978 27.8582 25.4805 28.7271C24.4184 29.4277 23.5443 30.3415 22.8517 31.4613V27.7622H19.6245V53.9411L22.8517 53.9415V43.2742C23.5443 44.3939 24.4184 45.3078 25.4805 46.0082C26.7978 46.8769 28.2907 47.3116 29.9587 47.3116C31.6993 47.3116 33.2703 46.8769 34.6726 46.0082C36.0743 45.1392 37.1801 43.9474 37.9904 42.4326C38.8 40.9184 39.2052 39.2296 39.2052 37.3676C39.2052 35.5054 38.8 33.8172 37.9904 32.3025C37.1801 30.7883 36.0743 29.5964 34.6726 28.7271ZM35.0533 40.8125C34.4849 41.8433 33.6993 42.6504 32.6964 43.2334C31.6931 43.817 30.5751 44.1087 29.3422 44.1087C28.1333 44.1087 27.0335 43.817 26.0427 43.2334C25.051 42.6504 24.2715 41.8433 23.7038 40.8125C23.1354 39.7825 22.8517 38.6338 22.8517 37.3676C22.8517 36.1013 23.1354 34.9531 23.7038 33.9226C24.2715 32.8925 25.051 32.0853 26.0427 31.5018C27.0335 30.9186 28.1458 30.6264 29.3786 30.6264C30.6113 30.6264 31.7231 30.9186 32.7145 31.5018C33.7053 32.0853 34.4849 32.8925 35.0533 33.9226C35.621 34.9531 35.9053 36.1013 35.9053 37.3676C35.9053 38.6338 35.621 39.7825 35.0533 40.8125ZM43.0543 33.4432V34.7547L42.2353 35.6059V39.5441L43.0543 40.3953V41.7069C43.0543 44.844 45.4422 47.3872 48.3879 47.3872H51.6219V44.4593H49.0037C47.2362 44.4593 46.1156 42.9333 46.1156 41.0511V39.1122L44.5344 37.5751L46.1156 36.0379V34.099C46.1156 32.2167 47.2362 30.6907 49.0037 30.6907H51.6219V27.7628L48.3879 27.7622C45.4422 27.7622 43.0543 30.306 43.0543 33.4432ZM61.1822 33.4432C61.1822 30.306 58.7943 27.7628 55.8486 27.7628H52.6146V30.6907H55.2328C57.0003 30.6907 58.1209 32.2167 58.1209 34.099V36.0379L59.7021 37.5751L58.1209 39.1122V41.0511C58.1209 42.9333 57.0003 44.4593 55.2328 44.4593H52.6146V47.3872H55.8486C58.7943 47.3872 61.1822 44.844 61.1822 41.7069V40.3953L62.0012 39.5441V35.6059L61.1822 34.7547V33.4432Z" fill="#96D700"/>
</g>
<defs>
<clipPath id="clip0_753_3239">
<rect width="173.179" height="73.6226" fill="white"/>
</clipPath>
</defs>
</svg>
